<svg xmlns="http://www.w3.org/2000/svg" xmlns:xlink="http://www.w3.org/1999/xlink" width="48" height="40" version="1.1" viewBox="0 0 48 40"><title>hyperapp logo 2</title><desc>Created with Sketch.</desc><g id="hyperapp-logo-2" fill="none" fill-rule="evenodd" stroke="none" stroke-width="1"><path id="Path" fill="#1661EE" fill-rule="nonzero" d="M41.3330306,8.0000336 L15.792606,8.0000336 L18.7046283,0 L10.1911535,0 L-2.52242671e-13,28.0000335 L8.51313863,28.0000335 L12.8810881,16.0000672 L38.4208402,16.0000672 L36.9649132,20 L15.7041744,20 L11.325129,31.9999663 L11.325129,32.0001344 C11.0872379,32.6534522 10.9655184,33.3435887 10.9655184,34.0389368 C10.9655184,37.3090566 13.6564617,40 16.9265816,40 L29.6851095,40 L32.5969637,31.9999663 L19.8384358,31.9999663 L21.305627,28.0000335 L34.0530589,28.0000335 L32.5971318,31.9999663 L41.1106067,31.9999663 L46.9344832,16.0000672 L46.9344832,15.9998991 C47.1723743,15.3465812 47.2940938,14.6564449 47.2940938,13.9610968 C47.2940938,10.6909769 44.6031506,8.0000336 41.3330306,8.0000336 Z"/></g></svg>